<?xml version="1.0" encoding="UTF-8" standalone="no"?>
<svg width="36px" height="36px" viewBox="0 0 36 36" version="1.1" xmlns="http://www.w3.org/2000/svg" xmlns:xlink="http://www.w3.org/1999/xlink">
    <!-- Generator: Sketch 39.1 (31720) - http://www.bohemiancoding.com/sketch -->
    <title>icon-setting</title>
    <desc>Created with Sketch.</desc>
    <defs>
        <linearGradient x1="-1.11022302e-14%" y1="50%" x2="100%" y2="50%" id="linearGradient-1">
            <stop stop-color="#20C9AD" offset="0%"></stop>
            <stop stop-color="#3FD27C" offset="100%"></stop>
        </linearGradient>
        <path d="M15.8336613,36 C15.5383333,36 15.2802214,35.7983126 15.2081902,35.5125888 L14.0965085,31.0670624 C13.2309334,30.7993464 12.3773635,30.4367893 11.5526061,29.9889952 L7.59929303,32.3624237 C7.34598326,32.5148898 7.02064228,32.4728716 6.81175176,32.2663821 L3.7396205,29.1942508 C3.53072998,28.9853603 3.49111282,28.6600193 3.64357888,28.4067096 L6.01700737,24.4581986 C5.57641645,23.6418448 5.22226298,22.790676 4.95934905,21.9166972 L0.489812252,20.7978124 C0.204088438,20.7269817 0,20.4676693 0,20.1735419 L0,15.8336613 C0,15.5359322 0.204088438,15.2778204 0.489812252,15.2081902 L4.93293761,14.0989095 C5.2054557,13.2237303 5.56801281,12.3713609 6.01340581,11.5502051 L3.63997732,7.59689199 C3.48751125,7.34118118 3.52712842,7.0158402 3.73601894,6.80694968 L6.80334812,3.7396205 C7.01463968,3.52832894 7.33998066,3.48631073 7.59329043,3.64357888 L11.5466035,6.01460633 C12.3605562,5.57881749 13.2117251,5.22226298 14.0857038,4.95934905 L15.2021876,0.489812252 C15.2754193,0.201687398 15.5323307,-3.19754894e-14 15.8276587,-3.19754894e-14 L20.1675393,-3.19754894e-14 C20.4628672,-3.19754894e-14 20.7233801,0.201687398 20.7930103,0.489812252 L21.904692,4.93773969 C22.7774702,5.21025778 23.6310401,5.57041385 24.4461934,6.01220529 L28.4043085,3.63637576 C28.6528162,3.49111282 28.9805582,3.52832894 29.1918498,3.73481842 L32.259179,6.8021476 C32.4704705,7.01103812 32.5100877,7.3363791 32.3576216,7.59208991 L29.9841932,11.5502051 C30.419982,12.3617568 30.7741355,13.2129256 31.0370494,14.0821022 L35.5113883,15.2033881 C35.7995131,15.2742188 36.0012005,15.5335312 36.0012005,15.8288592 L36.0012005,20.1639377 C36.0012005,20.4592657 35.7995131,20.7197786 35.5113883,20.7894087 L31.0370494,21.9106946 C30.7741355,22.7870744 30.419982,23.6382432 29.9865942,24.4449928 L32.3624237,28.400707 C32.5148898,28.6564178 32.4752726,28.9817588 32.2639811,29.1906493 L29.1966519,32.2627805 C28.9853603,32.4716711 28.6600193,32.5064861 28.4091106,32.3612232 L24.4509954,29.9853937 C23.6346417,30.4307867 22.7810718,30.7897422 21.9070931,31.0634608 L20.8002134,35.5089872 C20.7269817,35.794711 20.4700704,35.9963984 20.1723413,35.9963984 L15.8336613,36 L15.8336613,36 Z M18.0054023,14.3065995 C15.9681195,14.3065995 14.3126021,15.964518 14.3126021,17.9993997 C14.3126021,20.0342815 15.9681195,21.6922 18.0054023,21.6922 C20.0378831,21.6922 21.6934005,20.0342815 21.6934005,17.9993997 C21.6934005,15.964518 20.0378831,14.3065995 18.0054023,14.3065995 L18.0054023,14.3065995 Z" id="path-2"></path>
        <mask id="mask-3" maskContentUnits="userSpaceOnUse" maskUnits="objectBoundingBox" x="0" y="0" width="36.0012005" height="36" fill="white">
            <use xlink:href="#path-2"></use>
        </mask>
    </defs>
    <g id="Page-1" stroke="none" stroke-width="1" fill="none" fill-rule="evenodd">
        <g id="cssSprite" transform="translate(-313.000000, -80.000000)" stroke="url(#linearGradient-1)" stroke-width="4">
            <g id="icon-setting" transform="translate(313.000000, 80.000000)">
                <use id="Settings-2" mask="url(#mask-3)" xlink:href="#path-2"></use>
            </g>
        </g>
    </g>
</svg>