<svg xmlns="http://www.w3.org/2000/svg" width="35" height="33" viewBox="0 0 35 33">
  <path fill="#FFFFFF" fill-rule="evenodd" d="M46.5338147,51.2067291 L35.8747874,51.2067291 C35.1815882,53.7882933 32.8324646,55.688172 30.041205,55.688172 C26.7047396,55.688172 24,52.9736169 24,49.6250434 C24,46.2764698 26.7047396,43.5619147 30.041205,43.5619147 C30.4662967,43.5619147 30.8811338,43.6059794 31.2814289,43.6898058 L37.0386327,33.3994338 C35.9163898,32.2985746 35.2197948,30.7624961 35.2197948,29.0631287 C35.2197948,25.7145552 37.9245344,23 41.2609998,23 C44.5974651,23 47.3022047,25.7145552 47.3022047,29.0631287 C47.3022047,32.4117022 44.5974651,35.1262574 41.2609998,35.1262574 C40.6585678,35.1262574 40.0767313,35.0377577 39.5276932,34.8730058 L33.8893613,44.9509073 C34.9065559,45.7953949 35.6434893,46.9679125 35.9392572,48.3069719 L46.469345,48.3069719 C47.0689823,45.5921736 49.4819509,43.5619147 52.3673972,43.5619147 C55.7038626,43.5619147 58.4086022,46.2764698 58.4086022,49.6250434 C58.4086022,52.9736169 55.7038626,55.688172 52.3673972,55.688172 C49.5761376,55.688172 47.2270139,53.7882933 46.5338147,51.2067291 Z M44.4129328,29.0631287 C44.4129328,27.3160469 43.0017643,25.8997572 41.2609998,25.8997572 C39.5202352,25.8997572 38.1090667,27.3160469 38.1090667,29.0631287 C38.1090667,30.8102105 39.5202352,32.2265002 41.2609998,32.2265002 C43.0017643,32.2265002 44.4129328,30.8102105 44.4129328,29.0631287 Z M33.193138,49.6250434 C33.193138,47.8779615 31.7819695,46.4616719 30.041205,46.4616719 C28.3004404,46.4616719 26.8892719,47.8779615 26.8892719,49.6250434 C26.8892719,51.3721252 28.3004404,52.7884148 30.041205,52.7884148 C31.7819695,52.7884148 33.193138,51.3721252 33.193138,49.6250434 Z M55.5193302,49.6250434 C55.5193302,47.8779615 54.1081617,46.4616719 52.3673972,46.4616719 C50.6266327,46.4616719 49.2154642,47.8779615 49.2154642,49.6250434 C49.2154642,51.3721252 50.6266327,52.7884148 52.3673972,52.7884148 C54.1081617,52.7884148 55.5193302,51.3721252 55.5193302,49.6250434 Z" transform="translate(-24 -23)"/>
</svg>
