<svg xmlns="http://www.w3.org/2000/svg" width="40" height="38" viewBox="0 0 40 38">
  <defs>
    <linearGradient id="a" x1="50%" x2="50%" y1="0%" y2="98.148%">
      <stop stop-color="#17CDC0" offset="0%"/>
      <stop stop-color="#67EB43" offset="100%"/>
    </linearGradient>
  </defs>
  <path fill="url(#a)" fill-rule="evenodd" d="M182.19556,148.790323 L169.80444,148.790323 C168.998596,151.791391 166.26774,154 163.022901,154 C159.14426,154 156,150.84433 156,146.951613 C156,143.058896 159.14426,139.903226 163.022901,139.903226 C163.51707,139.903226 163.999318,139.954451 164.464661,140.051899 L171.157411,128.089342 C169.852803,126.809593 169.043011,125.023902 169.043011,123.048387 C169.043011,119.15567 172.187271,116 176.065912,116 C179.944553,116 183.088813,119.15567 183.088813,123.048387 C183.088813,126.941104 179.944553,130.096774 176.065912,130.096774 C175.365585,130.096774 174.6892,129.993893 174.050943,129.802369 L167.496383,141.51793 C168.678871,142.499647 169.535556,143.862698 169.879386,145.419355 L182.120614,145.419355 C182.817692,142.263402 185.622768,139.903226 188.977099,139.903226 C192.85574,139.903226 196,143.058896 196,146.951613 C196,150.84433 192.85574,154 188.977099,154 C185.73226,154 183.001404,151.791391 182.19556,148.790323 Z M179.730034,123.048387 C179.730034,121.017404 178.089551,119.370968 176.065912,119.370968 C174.042273,119.370968 172.40179,121.017404 172.40179,123.048387 C172.40179,125.07937 174.042273,126.725806 176.065912,126.725806 C178.089551,126.725806 179.730034,125.07937 179.730034,123.048387 Z M166.687023,146.951613 C166.687023,144.92063 165.04654,143.274194 163.022901,143.274194 C160.999262,143.274194 159.358779,144.92063 159.358779,146.951613 C159.358779,148.982596 160.999262,150.629032 163.022901,150.629032 C165.04654,150.629032 166.687023,148.982596 166.687023,146.951613 Z M192.641221,146.951613 C192.641221,144.92063 191.000738,143.274194 188.977099,143.274194 C186.95346,143.274194 185.312977,144.92063 185.312977,146.951613 C185.312977,148.982596 186.95346,150.629032 188.977099,150.629032 C191.000738,150.629032 192.641221,148.982596 192.641221,146.951613 Z" transform="translate(-156 -116)"/>
</svg>
