<svg xmlns="http://www.w3.org/2000/svg" width="21" height="29" viewBox="0 0 21 29">
  <defs>
    <linearGradient id="a" x1="0%" y1="50%" y2="50%">
      <stop stop-color="#20C9AD" offset="0%"/>
      <stop stop-color="#3FD27C" offset="100%"/>
    </linearGradient>
  </defs>
  <path fill="url(#a)" fill-rule="evenodd" d="M76.8110609,82.871581 C76.8253381,82.7859179 76.8375757,82.7002548 76.8375757,82.6105126 L76.8375757,72.3543968 C76.8375757,72.2646545 76.8253381,72.1789914 76.8110609,72.0933284 C76.8946844,72.0668136 76.9803475,72.0453978 77.0578522,71.9954277 L86.356377,65.9082491 L86.356377,89.0576801 L77.0568324,82.9694817 C76.9793277,82.9195116 76.8946844,82.8991156 76.8110609,82.871581 L76.8110609,82.871581 Z M70.0385776,82.2321672 L74.7979783,82.2321672 L74.7979783,72.7337619 L70.0385776,72.7337619 L70.0385776,82.2321672 Z M86.817326,63.16805 L75.9411726,70.2882846 C75.7627079,70.4045417 75.6515498,70.5738283 75.5750649,70.7563722 C75.4343327,70.7196595 75.2895213,70.6941645 75.138591,70.6941645 L69.6989847,70.6941645 C68.7740272,70.6941645 68,71.4233206 68,72.3543968 L68,82.6105126 C68,83.5415888 68.7740272,84.2717647 69.6989847,84.2717647 L75.138591,84.2717647 C75.2895213,84.2717647 75.4343327,84.2462697 75.5740451,84.2095569 C75.65053,84.3910811 75.7616881,84.5603677 75.939133,84.6766248 L86.817326,91.7968594 C87.4954921,92.2414917 88.3959744,91.7550477 88.3959744,90.9443077 L88.3959744,64.0216215 C88.3959744,63.2108815 87.4954921,62.7244375 86.817326,63.16805 L86.817326,63.16805 Z" transform="translate(-68 -63)"/>
</svg>
