<svg xmlns="http://www.w3.org/2000/svg" width="26" height="26" viewBox="0 0 26 26">
  <g fill="none" fill-rule="evenodd" transform="translate(1)">
    <path fill="#000000" d="M11,1.88235294 C12.4315438,1.88235294 13.5882353,3.03910349 13.5882353,4.47499188 L13.5882353,12.3989577 C13.5882353,13.8295614 12.4267472,14.9915966 11,14.9915966 C9.56845622,14.9915966 8.41176471,13.8348461 8.41176471,12.3989577 L8.41176471,4.47499188 C8.41176471,3.04438823 9.57325283,1.88235294 11,1.88235294 Z M11.9411765,24.0588235 L11.9411765,21.355429 C15.8933932,20.9503362 19,18.0254814 19,14.4117647 C19,13.8919673 18.5786209,13.4705882 18.0588235,13.4705882 C17.5390261,13.4705882 17.1176471,13.8919673 17.1176471,14.4117647 C17.1176471,17.1984256 14.4080339,19.5210084 11,19.5210084 C7.59196609,19.5210084 4.88235294,17.1984256 4.88235294,14.4117647 C4.88235294,13.8919673 4.46097388,13.4705882 3.94117647,13.4705882 C3.42137906,13.4705882 3,13.8919673 3,14.4117647 C3,18.0254814 6.10660678,20.9503362 10.0588235,21.355429 L10.0588235,24.0588235 L6.89915966,24.0588235 C6.37936225,24.0588235 5.95798319,24.4802026 5.95798319,25 C5.95798319,25.5197974 6.37936225,25.9411765 6.89915966,25.9411765 L15.3697479,25.9411765 C15.8895453,25.9411765 16.3109244,25.5197974 16.3109244,25 C16.3109244,24.4802026 15.8895453,24.0588235 15.3697479,24.0588235 L11.9411765,24.0588235 Z M6.52941176,12.3989577 C6.52941176,14.8744194 8.52883989,16.8739496 11,16.8739496 C13.4665405,16.8739496 15.4705882,14.8689578 15.4705882,12.3989577 L15.4705882,4.47499188 C15.4705882,1.99953017 13.4711601,0 11,0 C8.5334595,0 6.52941176,2.00499181 6.52941176,4.47499188 L6.52941176,12.3989577 Z"/>
    <path stroke="#000000" stroke-width="2" d="M0,3 L23.3886719,24.7226562" stroke-linecap="round"/>
  </g>
</svg>
