<?xml version="1.0" encoding="UTF-8" standalone="no"?>
<svg width="180px" height="108px" viewBox="0 0 180 108" version="1.1" xmlns="http://www.w3.org/2000/svg" xmlns:xlink="http://www.w3.org/1999/xlink">
    <!-- Generator: Sketch 39.1 (31720) - http://www.bohemiancoding.com/sketch -->
    <title>icon-screenXL</title>
    <desc>Created with Sketch.</desc>
    <defs>
        <linearGradient x1="-1.11022302e-14%" y1="50%" x2="100%" y2="50%" id="linearGradient-1">
            <stop stop-color="#20C9AD" offset="0%"></stop>
            <stop stop-color="#3FD27C" offset="100%"></stop>
        </linearGradient>
    </defs>
    <g id="Page-1" stroke="none" stroke-width="1" fill="none" fill-rule="evenodd" opacity="0.886077425">
        <g id="cssSprite" transform="translate(-395.000000, -8.000000)" fill="url(#linearGradient-1)">
            <path d="M566.69,26.462 L539,38 L539,25.964 C539,16.052 530.966,8 521.054,8 L412.946,8 C403.028,8 395,16.04 395,25.964 L395,98.036 C395,107.948 403.034,116 412.946,116 L521.054,116 C530.972,116 539,107.96 539,98.036 L539,86 L566.69,97.538 C570.644,99.188 575,96.284 575,92 L575,32 C575,27.716 570.644,24.812 566.69,26.462 Z M527,47 L527,77 L527,98.036 C527,101.336 524.342,104 521.054,104 L412.946,104 C409.67,104 407,101.324 407,98.036 L407,25.964 C407,22.664 409.658,20 412.946,20 L521.054,20 C524.33,20 527,22.676 527,25.964 L527,47 Z M563,83 L539,72.998 L539,51.002 L563,41 L563,83 Z M467,38.0006 C453.746,38.0006 443,48.7466 443,62.0006 C443,75.2546 453.746,86.0006 467,86.0006 C480.254,86.0006 491,75.2546 491,62.0006 C491,48.7466 480.254,38.0006 467,38.0006 Z M467,74.0006 C460.37,74.0006 455,68.6306 455,62.0006 C455,55.3706 460.37,50.0006 467,50.0006 C473.63,50.0006 479,55.3706 479,62.0006 C479,68.6306 473.63,74.0006 467,74.0006 Z" id="icon-screenXL"></path>
        </g>
    </g>
</svg>