<?xml version="1.0" encoding="UTF-8" standalone="no"?>
<svg width="26px" height="16px" viewBox="0 0 26 16" version="1.1" xmlns="http://www.w3.org/2000/svg" xmlns:xlink="http://www.w3.org/1999/xlink">
    <!-- Generator: Sketch 39.1 (31720) - http://www.bohemiancoding.com/sketch -->
    <title>Combined Shape</title>
    <desc>Created with Sketch.</desc>
    <defs>
        <linearGradient x1="-1.11022302e-14%" y1="50%" x2="100%" y2="50%" id="linearGradient-1">
            <stop stop-color="#20C9AD" offset="0%"></stop>
            <stop stop-color="#3FD27C" offset="100%"></stop>
        </linearGradient>
    </defs>
    <g id="Page-1" stroke="none" stroke-width="1" fill="none" fill-rule="evenodd">
        <g id="Artboard" transform="translate(-199.000000, -192.000000)" fill="url(#linearGradient-1)">
            <path d="M223.799667,194.666733 L219.8,196.333333 L219.8,194.5948 C219.8,193.163067 218.639533,192 217.2078,192 L201.5922,192 C200.1596,192 199,193.161333 199,194.5948 L199,205.0052 C199,206.436933 200.160467,207.6 201.5922,207.6 L217.2078,207.6 C218.6404,207.6 219.8,206.438667 219.8,205.0052 L219.8,203.266667 L223.799667,204.933267 C224.3708,205.1716 225,204.752133 225,204.133333 L225,195.466667 C225,194.847867 224.3708,194.4284 223.799667,194.666733 Z M218.066667,197.633333 L218.066667,201.966667 L218.066667,205.0052 C218.066667,205.481867 217.682733,205.866667 217.2078,205.866667 L201.5922,205.866667 C201.119,205.866667 200.733333,205.480133 200.733333,205.0052 L200.733333,194.5948 C200.733333,194.118133 201.117267,193.733333 201.5922,193.733333 L217.2078,193.733333 C217.681,193.733333 218.066667,194.119867 218.066667,194.5948 L218.066667,197.633333 Z M223.266667,202.833333 L219.8,201.3886 L219.8,198.2114 L223.266667,196.766667 L223.266667,202.833333 Z M209.4,196.33342 C207.485533,196.33342 205.933333,197.88562 205.933333,199.800087 C205.933333,201.714553 207.485533,203.266753 209.4,203.266753 C211.314467,203.266753 212.866667,201.714553 212.866667,199.800087 C212.866667,197.88562 211.314467,196.33342 209.4,196.33342 Z M209.4,201.53342 C208.442333,201.53342 207.666667,200.757753 207.666667,199.800087 C207.666667,198.84242 208.442333,198.066753 209.4,198.066753 C210.357667,198.066753 211.133333,198.84242 211.133333,199.800087 C211.133333,200.757753 210.357667,201.53342 209.4,201.53342 Z" id="Combined-Shape"></path>
        </g>
    </g>
</svg>