<?xml version="1.0" encoding="UTF-8" standalone="no"?>
<svg width="27px" height="16px" viewBox="0 0 27 16" version="1.1" xmlns="http://www.w3.org/2000/svg" xmlns:xlink="http://www.w3.org/1999/xlink">
    <!-- Generator: Sketch 39.1 (31720) - http://www.bohemiancoding.com/sketch -->
    <title>icon-cam</title>
    <desc>Created with Sketch.</desc>
    <defs>
        <linearGradient x1="-1.11022302e-14%" y1="50%" x2="100%" y2="50%" id="linearGradient-1">
            <stop stop-color="#20C9AD" offset="0%"></stop>
            <stop stop-color="#3FD27C" offset="100%"></stop>
        </linearGradient>
    </defs>
    <g id="Page-1" stroke="none" stroke-width="1" fill="none" fill-rule="evenodd">
        <g id="cssSprite" transform="translate(-173.000000, -100.000000)" fill="url(#linearGradient-1)">
            <path d="M197.943092,102.666733 L193.943425,104.333333 L193.943425,102.5948 C193.943425,101.163067 192.782958,100 191.351225,100 L175.735625,100 C174.303025,100 173.143425,101.161333 173.143425,102.5948 L173.143425,113.0052 C173.143425,114.436933 174.303892,115.6 175.735625,115.6 L191.351225,115.6 C192.783825,115.6 193.943425,114.438667 193.943425,113.0052 L193.943425,111.266667 L197.943092,112.933267 C198.514225,113.1716 199.143425,112.752133 199.143425,112.133333 L199.143425,103.466667 C199.143425,102.847867 198.514225,102.4284 197.943092,102.666733 Z M192.210092,105.633333 L192.210092,109.966667 L192.210092,113.0052 C192.210092,113.481867 191.826158,113.866667 191.351225,113.866667 L175.735625,113.866667 C175.262425,113.866667 174.876758,113.480133 174.876758,113.0052 L174.876758,102.5948 C174.876758,102.118133 175.260692,101.733333 175.735625,101.733333 L191.351225,101.733333 C191.824425,101.733333 192.210092,102.119867 192.210092,102.5948 L192.210092,105.633333 Z M197.410092,110.833333 L193.943425,109.3886 L193.943425,106.2114 L197.410092,104.766667 L197.410092,110.833333 Z M183.543425,104.33342 C181.628958,104.33342 180.076758,105.88562 180.076758,107.800087 C180.076758,109.714553 181.628958,111.266753 183.543425,111.266753 C185.457892,111.266753 187.010092,109.714553 187.010092,107.800087 C187.010092,105.88562 185.457892,104.33342 183.543425,104.33342 Z M183.543425,109.53342 C182.585758,109.53342 181.810092,108.757753 181.810092,107.800087 C181.810092,106.84242 182.585758,106.066753 183.543425,106.066753 C184.501092,106.066753 185.276758,106.84242 185.276758,107.800087 C185.276758,108.757753 184.501092,109.53342 183.543425,109.53342 Z" id="icon-cam"></path>
        </g>
    </g>
</svg>