<?xml version="1.0" encoding="UTF-8" standalone="no"?>
<svg width="16px" height="26px" viewBox="0 0 16 26" version="1.1" xmlns="http://www.w3.org/2000/svg" xmlns:xlink="http://www.w3.org/1999/xlink">
    <!-- Generator: Sketch 39.1 (31720) - http://www.bohemiancoding.com/sketch -->
    <title>Icon-mic</title>
    <desc>Created with Sketch.</desc>
    <defs>
        <linearGradient x1="-1.11022302e-14%" y1="50%" x2="100%" y2="50%" id="linearGradient-1">
            <stop stop-color="#20C9AD" offset="0%"></stop>
            <stop stop-color="#3FD27C" offset="100%"></stop>
        </linearGradient>
    </defs>
    <g id="Page-1" stroke="none" stroke-width="1" fill="none" fill-rule="evenodd">
        <g id="cssSprite" transform="translate(-136.000000, -90.000000)" fill="url(#linearGradient-1)">
            <g id="Icon-mic" transform="translate(136.000000, 90.000000)">
                <path d="M8,1.88235294 C9.43154378,1.88235294 10.5882353,3.03910349 10.5882353,4.47499188 L10.5882353,12.3989577 C10.5882353,13.8295614 9.42674717,14.9915966 8,14.9915966 C6.56845622,14.9915966 5.41176471,13.8348461 5.41176471,12.3989577 L5.41176471,4.47499188 C5.41176471,3.04438823 6.57325283,1.88235294 8,1.88235294 Z M8.94117647,24.0588235 L8.94117647,21.355429 C12.8933932,20.9503362 16,18.0254814 16,14.4117647 C16,13.8919673 15.5786209,13.4705882 15.0588235,13.4705882 C14.5390261,13.4705882 14.1176471,13.8919673 14.1176471,14.4117647 C14.1176471,17.1984256 11.4080339,19.5210084 8,19.5210084 C4.59196609,19.5210084 1.88235294,17.1984256 1.88235294,14.4117647 C1.88235294,13.8919673 1.46097388,13.4705882 0.941176471,13.4705882 C0.421379059,13.4705882 0,13.8919673 0,14.4117647 C0,18.0254814 3.10660678,20.9503362 7.05882353,21.355429 L7.05882353,24.0588235 L3.89915966,24.0588235 C3.37936225,24.0588235 2.95798319,24.4802026 2.95798319,25 C2.95798319,25.5197974 3.37936225,25.9411765 3.89915966,25.9411765 L12.3697479,25.9411765 C12.8895453,25.9411765 13.3109244,25.5197974 13.3109244,25 C13.3109244,24.4802026 12.8895453,24.0588235 12.3697479,24.0588235 L8.94117647,24.0588235 Z M3.52941176,12.3989577 C3.52941176,14.8744194 5.52883989,16.8739496 8,16.8739496 C10.4665405,16.8739496 12.4705882,14.8689578 12.4705882,12.3989577 L12.4705882,4.47499188 C12.4705882,1.99953017 10.4711601,0 8,0 C5.5334595,0 3.52941176,2.00499181 3.52941176,4.47499188 L3.52941176,12.3989577 Z" id="Combined-Shape"></path>
            </g>
        </g>
    </g>
</svg>