<?xml version="1.0" encoding="UTF-8" standalone="no"?>
<svg width="37px" height="31px" viewBox="0 0 37 31" version="1.1" xmlns="http://www.w3.org/2000/svg" xmlns:xlink="http://www.w3.org/1999/xlink">
    <!-- Generator: Sketch 39.1 (31720) - http://www.bohemiancoding.com/sketch -->
    <title>icon-host</title>
    <desc>Created with Sketch.</desc>
    <defs>
        <linearGradient x1="50%" y1="-2.48949813e-15%" x2="50%" y2="100%" id="linearGradient-1">
            <stop stop-color="#20C9AD" offset="0%"></stop>
            <stop stop-color="#3FD27C" offset="100%"></stop>
        </linearGradient>
    </defs>
    <g id="Page-1" stroke="none" stroke-width="1" fill="none" fill-rule="evenodd">
        <g id="cssSprite" transform="translate(-256.000000, -86.000000)">
            <g id="icon-host" transform="translate(274.356575, 101.500000) rotate(90.000000) translate(-274.356575, -101.500000) translate(259.856575, 84.000000)">
                <path d="M15.6,0.5 C15.6,-0.0522847498 15.1522847,-0.5 14.6,-0.5 C14.0477153,-0.5 13.6,-0.0522847498 13.6,0.5 L13.6,34.5 C13.6,35.0522847 14.0477153,35.5 14.6,35.5 C15.1522847,35.5 15.6,35.0522847 15.6,34.5 L15.6,0.5 Z" id="Line" fill="url(#linearGradient-1)"></path>
                <ellipse id="Oval-2" stroke="url(#linearGradient-1)" stroke-width="2" stroke-linecap="round" fill="#37393F" cx="14.6" cy="9.2" rx="3" ry="3"></ellipse>
                <path d="M4.6,0.5 C4.6,-0.0522847498 4.15228475,-0.5 3.6,-0.5 C3.04771525,-0.5 2.6,-0.0522847498 2.6,0.5 L2.6,34.5 C2.6,35.0522847 3.04771525,35.5 3.6,35.5 C4.15228475,35.5 4.6,35.0522847 4.6,34.5 L4.6,0.5 Z" id="Line" fill="url(#linearGradient-1)"></path>
                <ellipse id="Oval-2" stroke="url(#linearGradient-1)" stroke-width="2" stroke-linecap="round" fill="#37393F" cx="3.6" cy="25.2" rx="3" ry="3"></ellipse>
                <path d="M26.6,0.5 C26.6,-0.0522847498 26.1522847,-0.5 25.6,-0.5 C25.0477153,-0.5 24.6,-0.0522847498 24.6,0.5 L24.6,34.5 C24.6,35.0522847 25.0477153,35.5 25.6,35.5 C26.1522847,35.5 26.6,35.0522847 26.6,34.5 L26.6,0.5 Z" id="Line" fill="url(#linearGradient-1)"></path>
                <ellipse id="Oval-2" stroke="url(#linearGradient-1)" stroke-width="2" stroke-linecap="round" fill="#37393F" cx="25.6" cy="25.2" rx="3" ry="3"></ellipse>
            </g>
        </g>
    </g>
</svg>