<?xml version="1.0" encoding="UTF-8" standalone="no"?>
<svg width="93px" height="90px" viewBox="0 0 93 90" version="1.1" xmlns="http://www.w3.org/2000/svg" xmlns:xlink="http://www.w3.org/1999/xlink">
    <!-- Generator: Sketch 39.1 (31720) - http://www.bohemiancoding.com/sketch -->
    <title>logo</title>
    <desc>Created with Sketch.</desc>
    <defs>
        <linearGradient x1="-1.11022302e-14%" y1="50%" x2="100%" y2="50%" id="linearGradient-1">
            <stop stop-color="#20C9AD" offset="0%"></stop>
            <stop stop-color="#3FD27C" offset="100%"></stop>
        </linearGradient>
    </defs>
    <g id="Page-1" stroke="none" stroke-width="1" fill="none" fill-rule="evenodd">
        <g id="cssSprite" transform="translate(-12.000000, -26.000000)">
            <g id="logo" transform="translate(12.000000, 26.000000)">
                <rect id="Rectangle-9" fill="url(#linearGradient-1)" transform="translate(46.500000, 45.000000) scale(-1, 1) translate(-46.500000, -45.000000) " x="0" y="0" width="93" height="90"></rect>
                <path d="M52.1955596,56.7903226 L39.8044404,56.7903226 C38.9985963,59.7913909 36.2677401,62 33.0229008,62 C29.1442598,62 26,58.8443296 26,54.9516129 C26,51.0588962 29.1442598,47.9032258 33.0229008,47.9032258 C33.5170699,47.9032258 33.9993181,47.954451 34.4646611,48.0518993 L41.1574105,36.0893418 C39.8528032,34.809593 39.0430115,33.0239017 39.0430115,31.0483871 C39.0430115,27.1556704 42.1872712,24 46.0659122,24 C49.9445532,24 53.088813,27.1556704 53.088813,31.0483871 C53.088813,34.9411038 49.9445532,38.0967742 46.0659122,38.0967742 C45.365585,38.0967742 44.6892001,37.9938934 44.0509433,37.8023692 L37.4963825,49.5179297 C38.6788712,50.4996465 39.5355564,51.8626983 39.8793865,53.4193548 L52.1206135,53.4193548 C52.817692,50.2634018 55.6227679,47.9032258 58.9770992,47.9032258 C62.8557402,47.9032258 66,51.0588962 66,54.9516129 C66,58.8443296 62.8557402,62 58.9770992,62 C55.7322599,62 53.0014037,59.7913909 52.1955596,56.7903226 Z M49.7300344,31.0483871 C49.7300344,29.0174045 48.089551,27.3709677 46.0659122,27.3709677 C44.0422734,27.3709677 42.4017901,29.0174045 42.4017901,31.0483871 C42.4017901,33.0793697 44.0422734,34.7258065 46.0659122,34.7258065 C48.089551,34.7258065 49.7300344,33.0793697 49.7300344,31.0483871 Z M36.6870229,54.9516129 C36.6870229,52.9206303 35.0465395,51.2741935 33.0229008,51.2741935 C30.999262,51.2741935 29.3587786,52.9206303 29.3587786,54.9516129 C29.3587786,56.9825955 30.999262,58.6290323 33.0229008,58.6290323 C35.0465395,58.6290323 36.6870229,56.9825955 36.6870229,54.9516129 Z M62.6412214,54.9516129 C62.6412214,52.9206303 61.000738,51.2741935 58.9770992,51.2741935 C56.9534605,51.2741935 55.3129771,52.9206303 55.3129771,54.9516129 C55.3129771,56.9825955 56.9534605,58.6290323 58.9770992,58.6290323 C61.000738,58.6290323 62.6412214,56.9825955 62.6412214,54.9516129 Z" id="Combined-Shape" fill="#FFFFFF"></path>
            </g>
        </g>
    </g>
</svg>