<?xml version="1.0" encoding="UTF-8" standalone="no"?>
<svg width="128px" height="113px" viewBox="0 0 128 113" version="1.1" xmlns="http://www.w3.org/2000/svg" xmlns:xlink="http://www.w3.org/1999/xlink">
    <!-- Generator: Sketch 39.1 (31720) - http://www.bohemiancoding.com/sketch -->
    <title>wb-dropfile</title>
    <desc>Created with Sketch.</desc>
    <defs>
        <path d="M26,0 L0,42 L0,81 L0,86 L5,86 L123,86 L128,86 L128,41.889 L101,0 L26,0 L26,0 Z M5,43.423 L28.786,5 L98.274,5 L123,43.36 L123,81 L5,81 L5,43.423 L5,43.423 Z" id="path-1"></path>
        <linearGradient x1="5.74948665%" y1="13.2352941%" x2="5.74948665%" y2="389.705882%" id="linearGradient-3">
            <stop stop-color="#20C9AD" offset="0%"></stop>
            <stop stop-color="#3FD27C" offset="100%"></stop>
        </linearGradient>
        <linearGradient x1="0%" y1="50%" x2="100%" y2="50%" id="linearGradient-4">
            <stop stop-color="#20C9AD" offset="0%"></stop>
            <stop stop-color="#3FD27C" offset="100%"></stop>
        </linearGradient>
        <path d="M51.5,0 L51.5,12.005 C51.5,16.697 47.695,20.5 42.997,20.5 L14.003,20.5 C9.311,20.5 5.5,16.689 5.5,12.005 L5.5,0 L0.5,0 L0.5,12.005 C0.5,19.451 6.549,25.5 14.003,25.5 L42.997,25.5 C50.455,25.5 56.5,19.459 56.5,12.005 L56.5,0 L51.5,0 L51.5,0 Z" id="path-5"></path>
        <linearGradient x1="13.0390144%" y1="27.9411765%" x2="13.0390144%" y2="404.411765%" id="linearGradient-7">
            <stop stop-color="#20C9AD" offset="0%"></stop>
            <stop stop-color="#3FD27C" offset="100%"></stop>
        </linearGradient>
        <polygon id="path-8" points="33.5 0 2.5 0 0 0 0 5 2.5 5 33.5 5 36 5 36 0"></polygon>
        <linearGradient x1="5.95482546%" y1="27.9411765%" x2="5.95482546%" y2="404.411765%" id="linearGradient-10">
            <stop stop-color="#20C9AD" offset="0%"></stop>
            <stop stop-color="#3FD27C" offset="100%"></stop>
        </linearGradient>
        <path d="M33.5,0 L2.5,0 L0,0 L0,5 L2.5,5 L33.5,5 L36,5 L36,0 L33.5,0 L33.5,0 Z M0,0 L36,0 L36,5 L0,5 L0,0 L0,0 Z" id="path-11"></path>
        <polygon id="path-13" points="32.5 0 2.5 0 0 0 0 5 2.5 5 32.5 5 35 5 35 0"></polygon>
        <linearGradient x1="24.4353183%" y1="27.9411765%" x2="24.4353183%" y2="404.411765%" id="linearGradient-15">
            <stop stop-color="#20C9AD" offset="0%"></stop>
            <stop stop-color="#3FD27C" offset="100%"></stop>
        </linearGradient>
        <path d="M32.5,0 L2.5,0 L0,0 L0,5 L2.5,5 L32.5,5 L35,5 L35,0 L32.5,0 L32.5,0 Z M0,0 L35,0 L35,5 L0,5 L0,0 L0,0 Z" id="path-16"></path>
        <polygon id="path-18" points="0 0 0 2.5 0 62.5 0 65 5 65 5 62.5 5 2.5 5 0"></polygon>
        <linearGradient x1="18.275154%" y1="3.30882353%" x2="18.275154%" y2="379.779412%" id="linearGradient-20">
            <stop stop-color="#20C9AD" offset="0%"></stop>
            <stop stop-color="#3FD27C" offset="100%"></stop>
        </linearGradient>
        <polygon id="path-21" points="0.342 3.684 20.957 23.84 22.695 25.54 24.443 23.85 44.932 4.033 41.456 0.438 22.714 18.565 3.838 0.109"></polygon>
        <linearGradient x1="14.2386262%" y1="18.7902198%" x2="14.2386262%" y2="395.260808%" id="linearGradient-23">
            <stop stop-color="#20C9AD" offset="0%"></stop>
            <stop stop-color="#3FD27C" offset="100%"></stop>
        </linearGradient>
        <linearGradient x1="0.000246019287%" y1="49.9995985%" x2="100.000695%" y2="49.9995985%" id="linearGradient-24">
            <stop stop-color="#20C9AD" offset="0%"></stop>
            <stop stop-color="#3FD27C" offset="100%"></stop>
        </linearGradient>
    </defs>
    <g id="Page-1" stroke="none" stroke-width="1" fill="none" fill-rule="evenodd">
        <g id="Artboard-2" transform="translate(-205.000000, -9.000000)">
            <g id="Page-1" transform="translate(205.000000, 9.000000)">
                <g id="Group-3" transform="translate(0.000000, 27.000000)">
                    <mask id="mask-2" fill="white">
                        <use xlink:href="#path-1"></use>
                    </mask>
                    <g id="Clip-2"></g>
                    <polygon id="Fill-1" fill="url(#linearGradient-3)" mask="url(#mask-2)" points="-28 236 459 236 459 -36 -28 -36"></polygon>
                </g>
                <path d="M26,27 L0,69 L0,108 L0,113 L5,113 L123,113 L128,113 L128,68.889 L101,27 L26,27 Z M5,70.422 L28.786,32 L98.274,32 L123,70.36 L123,108 L5,108 L5,70.422 Z" id="Fill-4" fill="url(#linearGradient-4)"></path>
                <g id="Group-8" transform="translate(35.000000, 67.000000)">
                    <mask id="mask-6" fill="white">
                        <use xlink:href="#path-5"></use>
                    </mask>
                    <g id="Clip-7"></g>
                    <polygon id="Fill-6" fill="url(#linearGradient-7)" mask="url(#mask-6)" points="-63 196 424 196 424 -76 -63 -76"></polygon>
                </g>
                <path d="M86.5,67 L86.5,79.005 C86.5,83.697 82.695,87.5 77.997,87.5 L77.997,87.5 L49.003,87.5 C44.311,87.5 40.5,83.689 40.5,79.005 L40.5,79.005 L40.5,67 L35.5,67 L35.5,79.005 C35.5,86.451 41.549,92.5 49.003,92.5 L49.003,92.5 L77.997,92.5 C85.455,92.5 91.5,86.459 91.5,79.005 L91.5,79.005 L91.5,67 L86.5,67 Z" id="Fill-9" fill="url(#linearGradient-4)"></path>
                <g id="Group-13" transform="translate(1.000000, 67.000000)">
                    <mask id="mask-9" fill="white">
                        <use xlink:href="#path-8"></use>
                    </mask>
                    <g id="Clip-12"></g>
                    <polygon id="Fill-11" fill="url(#linearGradient-10)" mask="url(#mask-9)" points="-29 196 458 196 458 -76 -29 -76"></polygon>
                </g>
                <g id="Group-16" transform="translate(1.000000, 67.000000)">
                    <mask id="mask-12" fill="white">
                        <use xlink:href="#path-11"></use>
                    </mask>
                    <g id="Clip-15"></g>
                    <polygon id="Fill-14" fill="url(#linearGradient-4)" mask="url(#mask-12)" points="33.5 0 2.5 0 0 0 0 5 2.5 5 33.5 5 36 5 36 0"></polygon>
                </g>
                <g id="Group-19" transform="translate(91.000000, 67.000000)">
                    <mask id="mask-14" fill="white">
                        <use xlink:href="#path-13"></use>
                    </mask>
                    <g id="Clip-18"></g>
                    <polygon id="Fill-17" fill="url(#linearGradient-15)" mask="url(#mask-14)" points="-119 196 368 196 368 -76 -119 -76"></polygon>
                </g>
                <g id="Group-22" transform="translate(91.000000, 67.000000)">
                    <mask id="mask-17" fill="white">
                        <use xlink:href="#path-16"></use>
                    </mask>
                    <g id="Clip-21"></g>
                    <polygon id="Fill-20" fill="url(#linearGradient-4)" mask="url(#mask-17)" points="32.5 0 2.5 0 0 0 0 5 2.5 5 32.5 5 35 5 35 0"></polygon>
                </g>
                <g id="Group-25" transform="translate(61.000000, 0.000000)">
                    <mask id="mask-19" fill="white">
                        <use xlink:href="#path-18"></use>
                    </mask>
                    <g id="Clip-24"></g>
                    <polygon id="Fill-23" fill="url(#linearGradient-20)" mask="url(#mask-19)" points="-89 263 398 263 398 -9 -89 -9"></polygon>
                </g>
                <polygon id="Fill-26" fill="url(#linearGradient-4)" points="61 0 61 2.5 61 62.5 61 65 66 65 66 62.5 66 2.5 66 0"></polygon>
                <g id="Group-30" transform="translate(41.000000, 42.000000)">
                    <mask id="mask-22" fill="white">
                        <use xlink:href="#path-21"></use>
                    </mask>
                    <g id="Clip-29"></g>
                    <polygon id="Fill-28" fill="url(#linearGradient-23)" mask="url(#mask-22)" points="-69 221 418 221 418 -51 -69 -51"></polygon>
                </g>
                <polygon id="Fill-31" fill="url(#linearGradient-24)" points="41.342 45.684 61.957 65.84 63.695 67.54 65.443 65.85 85.932 46.033 82.456 42.438 63.714 60.565 44.838 42.109"></polygon>
            </g>
        </g>
    </g>
</svg>