<?xml version="1.0" encoding="UTF-8" standalone="no"?>
<svg width="19px" height="24px" viewBox="0 0 19 24" version="1.1" xmlns="http://www.w3.org/2000/svg" xmlns:xlink="http://www.w3.org/1999/xlink">
    <!-- Generator: Sketch 39.1 (31720) - http://www.bohemiancoding.com/sketch -->
    <title>wp-del</title>
    <desc>Created with Sketch.</desc>
    <defs></defs>
    <g id="Page-1" stroke="none" stroke-width="1" fill="none" fill-rule="evenodd">
        <g id="Artboard-2" transform="translate(-334.000000, -124.000000)" stroke="#37CF88" stroke-width="1.5">
            <g id="Group-9" transform="translate(335.000000, 125.000000)">
                <path d="M17.2364545,5.12491138 C17.2364545,5.43090246 16.9940159,5.67979473 16.6936495,5.67979473 L0.899382827,5.67979473 C0.599731583,5.67979473 0.357292987,5.43090246 0.357292987,5.12491138 L0.357292987,3.13596936 C0.357292987,2.83071031 0.599731583,2.58255008 0.899382827,2.58255008 L16.6936495,2.58255008 C16.9940159,2.58255008 17.2364545,2.83071031 17.2364545,3.13596936 L17.2364545,5.12491138 L17.2364545,5.12491138 Z" id="Stroke-1"></path>
                <path d="M16.2021213,6.07070199 L16.2021213,21.1310646 C16.2021213,21.4249734 15.9589676,21.6633348 15.6607466,21.6633348 L1.93543237,21.6633348 C1.63578112,21.6633348 1.39262737,21.4249734 1.39262737,21.1310646 L1.39262737,6.07070199" id="Stroke-3"></path>
                <path d="M6.44865211,2.25686723 L6.44865211,0.92016935 C6.44865211,0.614910306 6.69180586,0.366018039 6.99074195,0.366018039 L10.6044358,0.366018039 C10.9040871,0.366018039 11.1465257,0.614910306 11.1465257,0.92016935 L11.1465257,2.25686723" id="Stroke-5"></path>
                <path d="M5.09514389,18.8599055 L5.09514389,8.27105604" id="Stroke-7" stroke-linecap="round"></path>
                <path d="M8.79701676,18.8599055 L8.79701676,8.27105604" id="Stroke-9" stroke-linecap="round"></path>
                <path d="M12.4995333,18.8599055 L12.4995333,8.27105604" id="Stroke-11" stroke-linecap="round"></path>
            </g>
        </g>
    </g>
</svg>