<svg xmlns="http://www.w3.org/2000/svg" width="30" height="30" viewBox="0 0 30 30">
  <g fill="#FFFFFF" fill-rule="evenodd">
    <path d="M28,15 C28,7.82029825 22.1797017,2 15,2 C7.82029825,2 2,7.82029825 2,15 C2,22.1797017 7.82029825,28 15,28 C22.1797017,28 28,22.1797017 28,15 Z M0,15 C0,6.71572875 6.71572875,0 15,0 C23.2842712,0 30,6.71572875 30,15 C30,23.2842712 23.2842712,30 15,30 C6.71572875,30 0,23.2842712 0,15 Z"/>
    <polygon points="23.854 24.359 24.598 25.027 25.934 23.538 25.189 22.87 6.668 6.256 5.923 5.588 4.588 7.077 5.332 7.744"/>
  </g>
</svg>
