<svg xmlns="http://www.w3.org/2000/svg" width="50" height="50" viewBox="0 0 50 50" xmlns:xlink="http://www.w3.org/1999/xlink">
  <defs>
    <path id="a" d="M0,25 C0,38.807 11.193,50 25,50 C38.807,50 50,38.807 50,25 C50,11.193 38.807,0 25,0 C11.193,0 0,11.193 0,25 L0,25 Z"/>
    <polygon id="c" points=".295 4.025 .301 13.026 8.282 13.023 8.271 .149"/>
    <path id="e" d="M14.655,0.785 L13.929,0.789 L10.52,0.785 C8.025,1.316 7.977,3.95 7.977,3.95 C7.223,8.372 5.232,10.607 2.737,11.601 C0.568,12.465 0.808,14.956 0.808,14.956 L0.814,19 L27.801,18.985 L27.797,14.941 C27.797,14.941 28.029,12.45 25.861,11.586 C23.362,10.595 21.371,8.36 20.614,3.95 C20.614,3.95 20.563,1.31 18.064,0.782 L14.655,0.785 L14.655,0.785 Z"/>
    <path id="g" d="M2.51,0.323 C1.368,0.32 0.448,1.37 0.454,2.663 L0.459,4.814 C4.971,9.258 11.165,12 18,12 C24.166,12 29.811,9.767 34.171,6.066 L34.164,2.643 C34.16,1.35 33.24,0.299 32.101,0.299 L2.51,0.323 L2.51,0.323 Z"/>
  </defs>
  <g fill="none" fill-rule="evenodd">
    <mask id="b" fill="white">
      <use xlink:href="#a"/>
    </mask>
    <polygon fill="#4B4D52" points="-5 55 55 55 55 -5 -5 -5" mask="url(#b)"/>
    <g transform="translate(20 9)">
      <mask id="d" fill="white">
        <use xlink:href="#c"/>
      </mask>
      <polygon fill="#FEFEFE" points="-4.706 18.026 13.282 18.026 13.282 -4.851 -4.706 -4.851" mask="url(#d)"/>
    </g>
    <g transform="translate(10 21)">
      <mask id="f" fill="white">
        <use xlink:href="#e"/>
      </mask>
      <polygon fill="#616367" points="-4.2 24 32.805 24 32.805 -4.218 -4.2 -4.218" mask="url(#f)"/>
    </g>
    <g transform="translate(7 38)">
      <mask id="h" fill="white">
        <use xlink:href="#g"/>
      </mask>
      <polygon fill="#2A2C32" points="-4.545 37.948 39.222 37.948 39.222 -4.701 -4.545 -4.701" mask="url(#h)"/>
    </g>
  </g>
</svg>
